<svg width="497" height="148" viewBox="0 0 497 148" fill="none" xmlns="http://www.w3.org/2000/svg">
<mask id="path-1-inside-1" fill="white">
<path d="M39.4306 96.3792V39.3273C39.4306 36.9372 37.447 35 34.9994 35C32.553 35 30.5682 36.9372 30.5682 39.3273V96.3792C22.779 98.313 17 105.219 17 113.42C17 123.114 25.0742 131 34.9994 131C44.9246 131 53 123.114 53 113.42C53 105.219 47.2198 98.313 39.4306 96.3792ZM34.9994 122.345C29.9612 122.345 25.8624 118.341 25.8624 113.42C25.8624 108.498 29.9612 104.494 34.9994 104.494C40.0388 104.494 44.1376 108.498 44.1376 113.42C44.1376 118.341 40.0388 122.345 34.9994 122.345Z"/>
</mask>
<path d="M39.4306 96.3792V39.3273C39.4306 36.9372 37.447 35 34.9994 35C32.553 35 30.5682 36.9372 30.5682 39.3273V96.3792C22.779 98.313 17 105.219 17 113.42C17 123.114 25.0742 131 34.9994 131C44.9246 131 53 123.114 53 113.42C53 105.219 47.2198 98.313 39.4306 96.3792ZM34.9994 122.345C29.9612 122.345 25.8624 118.341 25.8624 113.42C25.8624 108.498 29.9612 104.494 34.9994 104.494C40.0388 104.494 44.1376 108.498 44.1376 113.42C44.1376 118.341 40.0388 122.345 34.9994 122.345Z" fill="#FF0000" stroke="#6C6C6C" stroke-width="5" mask="url(#path-1-inside-1)"/>
<mask id="path-2-inside-2" fill="white">
<path d="M56.5454 85.4835V21.5216C56.5454 9.65424 46.8803 0 34.9994 0C23.1197 0 13.4546 9.65424 13.4546 21.5216V85.4835C4.9891 92.0924 0 102.227 0 113.037C0 132.316 15.701 148 34.9994 148C54.299 148 70 132.316 70 113.037C70 102.227 65.0109 92.0924 56.5454 85.4835ZM34.9994 139.328C20.4877 139.328 8.68259 127.534 8.68259 113.037C8.68259 104.317 13.0013 96.1799 20.2356 91.2715C21.425 90.4641 22.1372 89.1205 22.1372 87.6842V21.5216C22.1372 14.4362 27.9075 8.67188 34.9994 8.67188C42.0925 8.67188 47.8628 14.4362 47.8628 21.5216V87.6842C47.8628 89.1205 48.575 90.4641 49.7644 91.2715C56.9987 96.1799 61.3174 104.317 61.3174 113.037C61.3174 127.534 49.5111 139.328 34.9994 139.328Z"/>
</mask>
<path d="M56.5454 85.4835V21.5216C56.5454 9.65424 46.8803 0 34.9994 0C23.1197 0 13.4546 9.65424 13.4546 21.5216V85.4835C4.9891 92.0924 0 102.227 0 113.037C0 132.316 15.701 148 34.9994 148C54.299 148 70 132.316 70 113.037C70 102.227 65.0109 92.0924 56.5454 85.4835ZM34.9994 139.328C20.4877 139.328 8.68259 127.534 8.68259 113.037C8.68259 104.317 13.0013 96.1799 20.2356 91.2715C21.425 90.4641 22.1372 89.1205 22.1372 87.6842V21.5216C22.1372 14.4362 27.9075 8.67188 34.9994 8.67188C42.0925 8.67188 47.8628 14.4362 47.8628 21.5216V87.6842C47.8628 89.1205 48.575 90.4641 49.7644 91.2715C56.9987 96.1799 61.3174 104.317 61.3174 113.037C61.3174 127.534 49.5111 139.328 34.9994 139.328Z" stroke="#6C6C6C" stroke-width="5" mask="url(#path-2-inside-2)"/>
<mask id="mask0" mask-type="alpha" maskUnits="userSpaceOnUse" x="98" y="32" width="391" height="83">
<text fill="white" xml:space="preserve" style="white-space: pre" font-family="Century Gothic" font-size="108" font-weight="bold" letter-spacing="0em"><tspan x="97" y="113.425">thermic</tspan></text>
</mask>
<g mask="url(#mask0)">
<rect x="93" y="119" width="91" height="400" transform="rotate(-90 93 119)" fill="url(#paint0_linear)"/>
</g>
<defs>
<linearGradient id="paint0_linear" x1="138.5" y1="119" x2="138.5" y2="519" gradientUnits="userSpaceOnUse">
<stop stop-color="#FF0000"/>
<stop offset="0.338542" stop-color="#FCB244"/>
<stop offset="0.588542" stop-color="#FCB244"/>
<stop offset="0.890625" stop-color="#44C5FC"/>
</linearGradient>
</defs>
</svg>
